<?xml version="1.0" encoding="iso-8859-1"?>
<!-- Generator: Adobe Illustrator 19.0.0, SVG Export Plug-In . SVG Version: 6.00 Build 0)  -->
<svg version="1.1" id="Layer_1" xmlns="http://www.w3.org/2000/svg" xmlns:xlink="http://www.w3.org/1999/xlink" x="0px" y="0px"
	 viewBox="0 0 512.002 512.002" style="enable-background:new 0 0 512.002 512.002;" xml:space="preserve">
<g>
	<g>
		<path d="M380.812,400.661v-58.178c9.521-5.701,15.91-16.115,15.91-27.996s-6.39-22.296-15.91-27.996v-83.794
			c9.575-18.92,14.979-40.293,14.979-62.907C395.79,62.709,333.082,0,256.001,0S116.212,62.709,116.212,139.789
			c0,22.614,5.404,43.988,14.979,62.907v83.794c-9.521,5.701-15.91,16.115-15.91,27.996s6.39,22.296,15.91,27.996v58.178
			c-9.521,5.701-15.91,16.115-15.91,27.996c0,17.982,14.629,32.611,32.611,32.611c17.982,0,32.611-14.629,32.611-32.611
			c0-11.881-6.39-22.296-15.91-27.996v-58.178c9.521-5.701,15.91-16.115,15.91-27.996s-6.39-22.296-15.91-27.996v-41.022
			c20.556,17.803,46.342,29.715,74.708,33.109v57.056l-27.511,23.693V467.79c0,24.379,19.833,44.212,44.212,44.212
			c24.379,0,44.212-19.833,44.212-44.212V359.327l-27.511-23.693v-57.056c28.366-3.393,54.151-15.305,74.708-33.109v41.022
			c-9.521,5.701-15.91,16.115-15.91,27.996s6.39,22.296,15.91,27.996v58.178c-9.521,5.701-15.91,16.115-15.91,27.996
			c0,17.982,14.629,32.611,32.611,32.611s32.611-14.629,32.611-32.611C396.722,416.777,390.332,406.362,380.812,400.661z
			 M339.798,74.316c-2.543-0.449-5.152-0.848-7.815-1.176c-9.603-1.184-18.684-1.337-27.199-0.498
			c-1.832-8.356-4.784-16.945-8.876-25.713c-1.146-2.455-2.343-4.833-3.567-7.134C311.223,46.68,327.623,58.767,339.798,74.316z
			 M256.001,44.03c6.621,9.973,13.963,23.622,16.533,37.979c-6.029,3.192-11.555,7.141-16.533,11.845
			c-4.978-4.704-10.505-8.653-16.533-11.845C242.038,67.653,249.38,54.003,256.001,44.03z M219.662,39.796
			c-1.225,2.3-2.422,4.678-3.567,7.134c-4.092,8.767-7.044,17.356-8.876,25.713c-8.514-0.841-17.596-0.686-27.199,0.498
			c-2.663,0.327-5.272,0.727-7.815,1.176C184.38,58.767,200.78,46.68,219.662,39.796z M169.135,191.456
			c-0.512,2.641-0.94,5.25-1.299,7.813c-10.857-16.041-17.448-35.189-18.151-55.807c1.806,1.872,3.694,3.741,5.671,5.586
			c7.076,6.602,14.336,12.047,21.72,16.371C173.642,173.261,170.979,181.951,169.135,191.456z M164.931,110.197
			c11.53-3.217,26.781-5.98,41.229-3.988c1.172,6.72,3.221,13.197,6.157,19.385c-6.012,3.281-11.476,7.316-16.375,12.063
			C183.083,130.777,172.368,119.577,164.931,110.197z M201.925,197.819c1.548-7.972,3.792-14.976,6.708-21.024
			c3.547,0.507,7.103,0.787,10.667,0.787c3.231,0,6.467-0.219,9.702-0.639c1.263,6.734,3.413,13.179,6.414,19.307
			c-10.519,10.105-24.482,16.833-35.701,21.009C199.963,211.385,200.592,204.687,201.925,197.819z M256.001,246.177
			c-10.188,0-20.044-1.443-29.38-4.128c2.345-1.142,4.713-2.363,7.086-3.676c8.464-4.688,15.902-9.901,22.295-15.586
			c6.394,5.684,13.832,10.898,22.295,15.586c2.372,1.314,4.741,2.535,7.086,3.676C276.047,244.734,266.19,246.177,256.001,246.177z
			 M276.587,196.251c3.002-6.128,5.152-12.572,6.414-19.306c3.236,0.419,6.47,0.638,9.702,0.638c3.549,0,7.095-0.279,10.628-0.783
			c6.365,13.129,8.45,28.494,8.954,40.459C301.068,213.083,287.105,206.355,276.587,196.251z M299.686,125.596
			c2.936-6.188,4.984-12.665,6.157-19.385c14.448-1.992,29.7,0.772,41.23,3.988c-7.437,9.379-18.151,20.58-31.013,27.461
			C311.162,132.912,305.699,128.876,299.686,125.596z M344.168,199.269c-0.36-2.563-0.786-5.172-1.299-7.813
			c-1.845-9.505-4.507-18.195-7.941-26.037c7.384-4.326,14.644-9.769,21.72-16.371c1.976-1.844,3.865-3.714,5.671-5.586
			C361.615,164.08,355.023,183.228,344.168,199.269z"/>
	</g>
</g>
<g>
</g>
<g>
</g>
<g>
</g>
<g>
</g>
<g>
</g>
<g>
</g>
<g>
</g>
<g>
</g>
<g>
</g>
<g>
</g>
<g>
</g>
<g>
</g>
<g>
</g>
<g>
</g>
<g>
</g>
</svg>
